<svg id="Base" xmlns="http://www.w3.org/2000/svg" viewBox="0 0 300 277.12"><defs><style>.cls-1{fill:#666;}</style></defs><title>Base</title><polygon class="cls-1" points="167.5 180.5 167.5 187.5 166.5 188.5 166.5 200.5 167.5 201.5 167.5 208.5 133.5 208.5 133.5 201.5 134.5 200.5 134.5 189.5 133.5 188.5 133.5 180.5 167.5 180.5"/><polygon class="cls-1" points="0 222 22 260 278 260 300 222 171 0 130 0 0 222"/><rect class="cls-1" x="140.5" y="186.5" width="21" height="16"/><polygon class="cls-1" points="120.5 178.5 150.5 125.5 181.5 178.5 120.5 178.5"/><polygon class="cls-1" points="148.5 146.5 154.5 146.5 166.5 167.5 162.5 172.5 140.5 172.5 136.5 167.5 148.5 146.5"/><polygon class="cls-1" points="113.5 171.5 113.5 174.5 119.5 178.5 148.5 127.5 143.5 124.5 140.5 124.5 131.5 118.5 131.5 116.5 125.5 112.5 115.5 128.5 115.5 132.5 107.5 147.5 104.5 148.5 96.5 162.5 101.5 166.5 104.5 165.5 113.5 171.5"/><polygon class="cls-1" points="160.43 124.75 157.83 123.26 151.38 126.47 181.16 177.01 186.26 174.17 187.75 171.57 197.43 166.75 199.17 167.74 205.63 164.53 196.73 147.89 193.26 145.9 184.23 131.5 184.86 128.4 176.7 114.49 170.74 116.83 170.12 119.93 160.43 124.75"/><polygon class="cls-1" points="116.5 259.5 116.5 248.5 83.5 248.5 73.55 231.4 47.5 246.5 62.5 276.5 106.5 276.5 111.5 271.5 111.5 265.5 116.5 259.5"/><polygon class="cls-1" points="183.41 247.92 152.5 247.5 152.5 210.5 180.5 210.5 179.91 183.61 183.23 177.21 194.61 170.93 207.74 163.68 193.25 137.41 226.52 119.06 242.46 147.95 243.3 149.47 258.41 176.84 249.62 191.97 242.44 191.37 258.92 200.54 274.05 209.33 271.51 213.01 272.66 219.23 260.55 240.76 253.46 242.39 251.4 246.95 219.79 228.99 223.57 233.75 214.78 248.88 183.41 247.92"/><polygon class="cls-1" points="56.96 148.4 72.27 121.54 104.66 139.44 91.11 163.95 114.94 176.43 118.94 182.43 118.93 195.43 118.92 210.43 148.92 210.45 148.9 248.45 115.9 248.43 114.16 248.43 82.9 248.41 73.91 233.41 77.91 227.41 61.91 237.4 46.9 246.39 44.9 242.39 38.9 240.39 25.91 219.38 27.92 212.38 24.92 208.38 55.93 189.4 49.93 190.39 40.94 175.39 56.96 148.4"/><polygon class="cls-1" points="208.78 90.47 223.72 117.53 191.57 135.84 177.71 111.52 154.64 125.34 147.43 125.63 136.34 118.84 123.55 111.02 107.9 136.61 75.48 116.79 92.69 88.64 93.59 87.16 109.91 60.48 127.4 60.63 130.43 67.17 130.25 48.3 130.39 30.81 134.85 31.19 139.68 27.12 164.38 26.98 169.31 32.34 174.29 31.86 174.33 68.22 176.6 62.58 194.09 62.73 208.78 90.47"/><polygon class="cls-1" points="47.96 142.12 57.57 147.48 41.49 176.3 51.58 193.31 25.7 208.71 6.81 181 28.24 142.57 35.05 140.64 40.29 143.56 47.96 142.12"/><polygon class="cls-1" points="254.03 142.77 244.45 148.18 260.68 176.91 250.68 193.98 276.64 209.24 295.39 181.43 273.75 143.12 266.94 141.22 261.71 144.17 254.03 142.77"/><polygon class="cls-1" points="185.53 260.17 185.47 249.17 218.47 249 228.32 231.85 254.46 246.81 239.62 276.88 195.62 277.12 190.59 272.14 190.56 266.14 185.53 260.17"/><polygon class="cls-1" points="82.89 83.79 92.46 89.22 108.72 60.5 128.5 60.27 128.2 28.16 94.71 28.43 73.02 66.72 74.91 73.53 80.13 76.49 82.89 83.79"/><polygon class="cls-1" points="218.8 82 209.41 87.72 192.25 59.53 172.47 59.92 171.83 27.82 205.25 27.03 228.13 64.62 226.45 71.49 221.33 74.61 218.8 82"/><polygon class="cls-1" points="116.5 260.5 111.5 265.5 111.5 271.5 189.5 271.5 189.5 266.5 184.5 260.5 116.5 260.5"/><polygon class="cls-1" points="253.97 142.1 260.81 143.89 265.99 140.85 226.5 73.58 222.19 76.11 219.54 83.46 253.97 142.1"/><polygon class="cls-1" points="82.17 83.23 80.32 76.41 75.11 73.42 36.34 141.11 40.68 143.59 48.37 142.24 82.17 83.23"/></svg>