<svg id="Layer_1" data-name="Layer 1" xmlns="http://www.w3.org/2000/svg" viewBox="0 0 932 869"><defs><style>.cls-1{fill:#4d4d4d;isolation:isolate;}.cls-2{fill:#696969;}</style></defs><title>Center</title><g id="Layer_2-2" data-name="Layer 2-2"><polygon class="cls-1" points="154 0 110 51 0 210 0 450 256 818 193 869 777 869 932 656 932 415 677 49 740 0 154 0"/><polygon class="cls-2" points="227 435 221 435 221 281 287 188 461 188 461 161 469 161 469 187 642 187 642 199 469 199 469 243 461 243 461 200 289 200 229 287 227 435"/><polygon class="cls-2" points="705 435 711 435 711 589 645 682 471 682 471 709 463 709 463 683 290 683 290 671 463 671 463 627 471 627 471 670 643 670 703 583 705 435"/><polygon class="cls-2" points="329 352 349 333 360 346 364 343 443 423 477 457 555 537 553 540 566 553 546 572 561 587 579 569 585 569 595 560 595 552 614 534 598 518 583 536 568 524 566 526 489 448 454 412 375 333 377 330 363 318 382 298 367 284 349 303 344 302 332 313 333 319 315 337 329 352"/><polygon class="cls-2" points="378 447 378 425 455 345 475 345 552 424 552 445 476 522 455 522 378 447"/></g></svg>