<svg id="Layer_1" data-name="Layer 1" xmlns="http://www.w3.org/2000/svg" viewBox="0 0 66.47 124"><defs><style>.cls-1{fill:#4d4d4d;}</style></defs><title>Pinwheel Blade</title><polygon class="cls-1" points="11.91 0 0 95.66 20.68 124 46.38 124 66.47 95.57 54.72 0 11.91 0"/><polygon class="cls-1" points="25.62 41.87 16.51 46.13 10.47 98.81 23.4 118.13 25.62 118.13 25.62 41.87"/><polygon class="cls-1" points="40.68 41.87 49.79 46.13 55.83 98.81 42.89 118.13 40.68 118.13 40.68 41.87"/><polygon class="cls-1" points="7.76 33.35 10.47 40.94 3.34 100.23 20.68 124 46.38 124 63.23 100.16 55.83 43.15 58.68 32.2 55.26 4.35 42.81 4.35 40.68 5.79 26.04 5.87 24 4.35 11.37 4.35 7.76 33.35"/><polygon class="cls-1" points="12.34 11.06 14.04 8.68 25.19 8.68 27.02 10.51 38.55 10.51 40.53 8.53 52.6 8.53 54.8 10.73 54.8 16.51 53.28 16.51 53.28 26.04 54.8 27.57 54.8 31.06 54.8 33.79 40.68 33.79 39.06 32.17 27.32 32.17 25.66 33.83 12.34 33.83 12.34 11.06"/><polygon class="cls-1" points="11.57 37.28 28.43 37.28 28.43 122.04 21.53 122.04 5.79 100 11.57 37.28"/><polygon class="cls-1" points="54.89 37.28 38.04 37.28 38.04 122.04 44.94 122.04 60.68 100 54.89 37.28"/></svg>