<svg xmlns="http://www.w3.org/2000/svg" viewBox="0 0 1027 896"><defs><style>.cls-1{fill:#c6b0b0;}.cls-2{fill:#c1272d;}</style></defs><title>Asset 1</title><g id="Layer_2" data-name="Layer 2"><g id="Buildout_Red" data-name="Buildout Red"><polygon class="cls-1" points="205 686 205 890 377 890 420 890 599 890 667 890 667 833 600 833 421 833 377 833 377 821 491.81 821 586 821 586 790 558 749 492 749 377 749 377 739 504 739 398 588 299 588 299 800 283 800 262 686 205 686"/><polygon class="cls-1" points="658 617 719 574 642 466 642 345 808 112 743 68 568 319 568 490 658 617"/><polygon class="cls-1" points="594 68 557 141 681 141 732 68 594 68"/><polygon class="cls-1" points="179 207 262 207 340 95 385 95 300 219 300 308 392 308 568 61 578.23 61 733 61 820 120 862 61 1027 61 1027 5 578 5 179 5 179 207"/><rect class="cls-1" x="38" y="5" width="124" height="126"/><polygon class="cls-1" points="149 395 176 411 176 483 149 499 86 464 86 430 149 395"/><rect class="cls-1" x="293" y="293" width="10" height="308"/><polygon class="cls-1" points="104 687 72.96 687 36 687 0 687 0 894 36 894 75 894 104 894 104 687"/><polygon class="cls-2" points="707 827 707 793 651 714 688 714 744 793 744 827 707 827"/><polygon class="cls-2" points="205 686 193 686 193 896 667 896 667 890 205 890 205 686"/><polygon class="cls-2" points="667 833 377 833 377 821 586 821 586 791 558 749 377 749 377 738 562 738 595 787 624 787 635 802 635 822 667 822 667 833"/><polygon class="cls-2" points="262 686 283 800 298 800 299 588 398 588 503.3 738 547.09 738 416 551 310.4 551 275 551 261.5 564.5 262 686"/><rect class="cls-2" x="310" y="497" width="30" height="54"/><rect class="cls-2" x="310" y="342" width="30" height="55"/><polygon class="cls-2" points="385 95 340 95 262 207 262 332 274.5 344.5 414 344.5 557 141 594 68 563 68 392 308 300 308 300 219 385 95"/><polygon class="cls-2" points="563 68 568 61 732 61 743 68 563 68"/><polygon class="cls-2" points="732 68 557 316 541 339 541 389 557 410 557 493 649 624 658 617 568 490 568 319 743 68 732 68"/><polygon class="cls-2" points="755 624 740 604 642 466 642 344 808 112 814.02 116.21 838 133 679 353 679 456 784 601 755 624"/><polygon class="cls-2" points="828 126 869 68 1027 68 1027 61 862 61 820 120 828 126"/><polygon class="cls-2" points="188 474 177 474 170 474 170 419 177 419 188 419 188 474"/><polygon class="cls-2" points="143.4 489.05 138.03 498.66 134.62 504.77 86.6 477.95 90.02 471.84 95.38 462.23 143.4 489.05"/><polygon class="cls-2" points="96.13 431.44 90.44 422.02 86.81 416.04 133.87 387.56 137.49 393.55 143.19 402.96 96.13 431.44"/><polygon class="cls-2" points="179 207 168 207 168 0 577.98 0 1027 0 1027 5 577.98 5 178.91 5 179 207"/></g></g></svg>